<svg xmlns="http://www.w3.org/2000/svg" viewBox="0 0 25.1 31.13"><defs><style>.cls-1{fill:#00a79b;}</style></defs><g id="Layer_2" data-name="Layer 2"><g id="レイヤー_1" data-name="レイヤー 1"><path class="cls-1" d="M22.27,0H2.83A2.83,2.83,0,0,0,0,2.83v21.6a2.83,2.83,0,0,0,2.83,2.82v2.33a1.56,1.56,0,0,0,3.11,0h0V27.25H19.16v2.33a1.56,1.56,0,0,0,3.11,0h0V27.25a2.83,2.83,0,0,0,2.83-2.82V2.83A2.83,2.83,0,0,0,22.27,0ZM7.34,1.46H17.76a1.05,1.05,0,1,1,0,2.1H7.34a1.05,1.05,0,1,1,0-2.1ZM2.42,5H22.68v10.3H2.42ZM4,23.48a2.27,2.27,0,1,1,2.27-2.27A2.27,2.27,0,0,1,4,23.48Zm17.06,0a2.27,2.27,0,1,1,2.27-2.27A2.26,2.26,0,0,1,21.08,23.48Z"/></g></g></svg>