<svg xmlns="http://www.w3.org/2000/svg" viewBox="0 0 25.1 32.9"><defs><style>.cls-1{fill:#00a79b;}</style></defs><g id="Layer_2" data-name="Layer 2"><g id="レイヤー_1" data-name="レイヤー 1"><path class="cls-1" d="M25.1,21.3V2.83A2.83,2.83,0,0,0,22.27,0H2.83A2.83,2.83,0,0,0,0,2.83V21.3a6,6,0,0,0,4.78,5.84L.3,32.9H4.22l4.39-5.65h7.88l4.38,5.65H24.8l-4.48-5.76A6,6,0,0,0,25.1,21.3ZM7.34,1.46H17.76a1.05,1.05,0,1,1,0,2.1H7.34a1.05,1.05,0,1,1,0-2.1ZM4.44,23a2,2,0,1,1,2-2A2,2,0,0,1,4.44,23Zm16.22,0a2,2,0,1,1,2-2A2,2,0,0,1,20.66,23Zm2-7.67H2.42V5H22.68Z"/></g></g></svg>