<svg xmlns="http://www.w3.org/2000/svg" viewBox="0 0 32.9 25.86"><defs><style>.cls-1{fill:#00a79b;}</style></defs><g id="Layer_2" data-name="Layer 2"><g id="レイヤー_1" data-name="レイヤー 1"><path class="cls-1" d="M30.23,9.05,26.4,0H6.5L2.68,9.05A2.69,2.69,0,0,0,0,11.73v6.76a2.69,2.69,0,0,0,2.68,2.68h.15V24a1.88,1.88,0,1,0,3.76,0h0v-2.8H26.31V24a1.88,1.88,0,1,0,3.76,0h0v-2.8h.16a2.68,2.68,0,0,0,2.67-2.68V11.73A2.68,2.68,0,0,0,30.23,9.05ZM7.83,2.3H25.07l2.86,6.75H5ZM4.71,16.71A2.75,2.75,0,1,1,7.45,14,2.75,2.75,0,0,1,4.71,16.71Zm23.48,0A2.75,2.75,0,1,1,30.93,14,2.75,2.75,0,0,1,28.19,16.71Z"/></g></g></svg>